# xmcd
#
# Track frame offsets: 
#        150
#        11203
#        21173
#        34913
#        45571
#        65021
#        79626
#        92299
#        116112
#        127765
#        138465
#
# Disc length: 1982 seconds
#
# Revision: 0
# Processed by: cddbd v1.5.2PL0 Copyright (c) Steve Scherf et al.
# Submitted via: ExactAudioCopy v1.0b4
#
DISCID=8a07bc0b
DTITLE=Boogie Phil - Boogie and Blues Session
DYEAR=2015
DGENRE=Blues
TTITLE0=Dive Bomber
TTITLE1=After Hours
TTITLE2=Honky Tonk Train Blues
TTITLE3=Song For My Father
TTITLE4=Phil The Boogieman
TTITLE5=Honey Groove Blues
TTITLE6=Dance Of The Cuckoos
TTITLE7=Bluessession
TTITLE8=Swannee River Boogie
TTITLE9=Well You Needn't
TTITLE10=Twee Motten Boogie
EXTD=
EXTT0=
EXTT1=
EXTT2=
EXTT3=
EXTT4=
EXTT5=
EXTT6=
EXTT7=
EXTT8=
EXTT9=
EXTT10=
PLAYORDER=
